<svg width="313" height="174" viewBox="0 0 313 174" fill="none" xmlns="http://www.w3.org/2000/svg">
<rect width="312.212" height="174" rx="12" fill="transparent"/>
<path d="M207.22 89.1524C209.121 83.3806 207.502 77.8199 202.997 73.8077C197.929 69.2325 190.749 67.1912 184.203 65.6427C176.812 63.9534 169.281 63.1791 161.749 62.6864C148.305 61.9121 134.72 62.264 121.276 63.4606C120.854 55.014 120.713 46.5674 123.036 38.4023C120.361 46.4266 120.361 55.014 120.783 63.531C111.281 64.4461 101.849 65.7835 92.4871 67.5432C80.3098 69.866 67.7807 72.1184 56.7297 78.031C53.8438 79.65 48.5646 83.0286 51.169 86.9C52.2952 88.5893 54.6181 89.3636 56.3778 89.9971C59.686 91.0529 63.2758 91.616 66.6545 92.1087C78.1278 93.8684 89.8123 93.8685 101.356 93.9388C101.567 93.9388 101.567 93.5165 101.356 93.5165C86.7856 92.7422 71.7225 92.9534 57.4336 89.1524C55.1108 88.5189 50.6059 86.9704 51.8729 83.8029C53.0695 80.6354 57.8559 78.8053 60.6715 77.4679C66.5841 74.7228 72.9191 72.9631 79.254 71.4849C92.9798 68.3174 106.846 66.065 120.783 64.798C120.994 68.5286 121.206 72.1888 121.276 75.7786C121.417 83.1694 121.417 90.4898 121.628 97.8806C121.769 101.541 121.909 105.131 122.05 108.791C122.05 109.284 121.769 110.621 122.402 110.973C124.021 111.888 125.71 112.733 127.47 113.507C138.662 118.364 151.473 118.504 163.227 115.97C172.026 114.07 180.825 111.254 188.849 107.172C196.451 103.16 204.334 97.599 207.22 89.1524ZM186.174 107.172C168.225 115.689 145.842 120.475 127.048 112.31C125.781 111.747 124.584 111.184 123.388 110.551C122.261 109.987 122.684 106.046 122.684 104.99C122.543 101.682 122.402 98.3733 122.261 95.0651C121.98 88.3782 121.98 81.6209 121.839 74.934C121.769 71.5553 121.557 68.1063 121.346 64.6572C132.82 63.6014 144.363 63.2495 155.977 63.531C163.016 63.7422 170.126 64.3053 177.094 65.3611C184.555 66.4873 192.227 68.2471 198.774 72.048C204.686 75.4267 208.206 80.9874 206.516 87.815C204.123 97.3175 194.339 103.301 186.174 107.172Z" fill="#121212"/>
<path d="M236.713 107.031C236.22 105.975 235.798 104.92 235.446 103.793C240.021 98.6551 242.696 91.0531 242.626 84.5774C242.626 82.325 242.133 78.8759 239.81 77.6793C237.698 76.5531 236.009 79.791 235.376 81.1988C232.208 88.0264 232.067 95.9803 234.179 103.16C234.179 103.16 234.179 103.16 234.109 103.23C232.208 105.412 229.181 107.806 226.296 108.369C224.536 108.721 224.325 106.468 224.465 104.427C224.888 103.301 225.029 102.175 224.817 101.189C224.677 100.626 223.902 100.837 223.832 101.259C223.691 102.104 223.41 103.371 223.269 104.638C222.354 106.257 220.664 107.665 219.116 107.946C218.201 108.087 217.779 107.454 217.708 106.539C218.694 104.99 219.116 103.09 218.482 101.259C218.412 100.978 217.849 100.908 217.778 101.259C217.356 102.526 216.582 104.849 216.652 106.609C215.385 108.228 213.274 109.284 211.373 109.143C209.473 109.002 209.965 106.187 210.388 104.145C210.669 103.582 210.81 103.019 210.74 102.386C210.74 101.963 210.177 101.963 210.036 102.386C209.965 102.878 209.754 103.512 209.613 104.286C208.276 106.679 204.334 108.932 201.941 109.847C202.152 108.439 202.223 107.031 202.434 105.624C202.575 105.764 202.786 105.905 203.138 106.046C203.419 106.187 203.63 105.764 203.419 105.624C202.997 105.272 202.645 105.131 202.645 104.357C202.645 103.934 202.082 103.934 201.941 104.357C201.448 106.398 201.308 108.509 200.815 110.551C200.745 110.973 201.167 111.184 201.519 111.114C203.771 110.621 205.953 109.002 207.643 107.454C208.206 106.961 208.839 106.398 209.332 105.764C208.98 108.017 209.121 110.34 211.795 110.199C213.696 110.058 215.526 109.143 216.863 107.806C217.215 108.65 217.919 109.213 219.257 109.143C220.735 109.073 222.213 108.087 223.269 106.679C223.339 107.665 223.691 108.58 224.395 109.143C226.718 110.973 230.308 108.228 232.138 106.891C232.982 106.257 233.827 105.553 234.601 104.779C234.883 105.624 235.235 106.468 235.587 107.313C235.446 107.383 235.305 107.594 235.376 107.806C235.376 108.58 235.868 108.932 236.431 109.073C236.572 109.354 236.783 109.706 236.924 109.988C237.135 110.41 237.698 110.199 237.839 109.917C238.754 108.228 238.191 107.102 236.713 107.031ZM218.06 103.442C218.06 103.793 217.99 104.075 217.919 104.427C217.919 104.075 217.99 103.793 218.06 103.442ZM234.531 86.8298C234.953 84.6478 236.009 78.8759 238.895 78.3832C241.781 77.8905 241.781 84.507 241.711 85.9852C241.429 91.6866 238.543 97.8104 234.953 102.315C233.616 97.2473 233.475 91.9682 234.531 86.8298Z" fill="#121212"/>
<path d="M261.349 108.298C256.563 108.368 245.864 112.24 245.512 104.286C245.512 103.864 244.878 103.652 244.667 104.004C243.611 105.553 243.048 107.242 242.555 109.002C242.274 107.665 242.344 106.257 242.696 104.919C242.978 103.723 243.611 102.667 244.526 101.893C246.075 100.626 248.538 100.907 248.257 103.3C248.257 103.512 248.538 103.512 248.538 103.371C249.242 99.9218 246.004 99.8514 243.752 101.611C241.359 103.582 241.077 108.016 242.203 110.691C242.344 111.114 242.907 111.043 243.048 110.621C243.47 108.932 243.963 107.313 244.737 105.834C246.215 112.451 256.633 110.973 261.49 109.002C261.912 108.791 261.771 108.228 261.349 108.298Z" fill="#121212"/>
</svg>
