<svg width="313" height="174" viewBox="0 0 313 174" fill="none" xmlns="http://www.w3.org/2000/svg">
<rect width="312.212" height="174" rx="12" fill="transparent"/>
<path d="M211.084 72.8495C209.574 66.9178 205.044 63.2509 199.544 60.8782C183.259 53.8681 163.846 55.378 146.806 57.9663C142.815 58.6134 138.825 59.2605 134.727 60.1233C134.619 58.7213 134.619 57.3192 134.619 55.9172C134.511 52.6817 134.619 49.4463 134.727 46.3186C134.727 45.2402 134.835 44.4852 134.835 43.4067C134.835 42.9753 134.835 42.5439 134.942 42.1125C134.942 41.789 134.511 41.6811 134.511 42.0047C133.756 48.0442 133.325 54.2995 133.433 60.5547C129.55 61.4175 125.667 62.3881 121.893 63.4666C115.745 65.1922 108.735 67.3492 104.098 71.8788C98.1659 77.5948 100.754 84.1736 105.823 89.4582C106.039 89.7818 106.578 89.2425 106.362 88.919C103.99 85.8992 101.725 82.448 102.372 78.3498C102.803 75.33 105.392 73.0652 107.765 71.4474C113.373 67.5649 120.599 65.7314 127.069 64.1137C129.119 63.5745 131.276 63.1431 133.325 62.6038C133.433 70.9082 134.188 79.3204 135.374 87.4091C130.197 89.6739 125.452 92.9094 121.03 97.0076C120.706 97.3312 121.246 97.8704 121.569 97.6547C125.883 93.6643 130.521 90.7524 135.482 88.5954C135.805 90.5367 136.129 92.5858 136.452 94.5271C138.286 104.557 141.521 115.773 139.472 126.019C138.394 131.519 133.864 131.196 130.197 128.176C125.56 124.293 122.216 118.577 119.196 113.509C116.716 109.302 114.343 104.988 112.51 100.459C111.108 96.8998 110.029 93.1251 109.706 89.2425C109.382 84.2815 111.539 80.5068 114.99 77.0556C115.314 76.732 114.775 76.1928 114.451 76.4085C102.264 84.0658 110.569 100.567 115.745 110.273C118.873 116.097 122.324 121.813 126.638 126.774C129.226 129.686 133.001 133.137 137.207 131.951C140.982 130.872 141.629 125.911 141.845 122.676C142.168 116.636 141.198 110.489 140.227 104.557C139.256 98.9489 138.394 93.4486 137.531 87.8405C139.796 86.9777 142.168 86.2228 144.649 85.6835C144.433 96.4684 145.296 107.361 150.365 116.96C150.688 117.499 151.551 117.175 151.659 116.636C151.983 115.234 153.816 112.754 155.542 110.057C156.404 111.244 157.483 112.322 158.561 113.401C158.885 113.724 159.532 113.509 159.748 113.185C161.15 110.489 161.689 107.685 162.444 104.773C162.983 106.391 164.17 107.469 166.326 107.253C169.238 106.93 171.395 104.234 172.474 101.429C174.739 104.988 179.053 99.596 180.778 95.9292C183.043 97.8704 185.416 96.3605 186.71 93.6643C194.259 100.243 203.858 95.0664 208.603 87.3012C210.976 82.9873 212.27 77.5948 211.084 72.8495ZM209.143 79.9675C207.417 89.6739 195.554 100.351 186.71 91.3995C186.386 91.076 185.631 91.1838 185.416 91.723C184.984 93.0172 183.474 97.1155 180.994 93.7722C180.563 93.1251 179.7 93.4486 179.484 94.0957C178.729 96.4684 174.199 104.126 172.905 98.4097C172.69 97.6547 171.503 97.7626 171.395 98.5175C171.072 100.89 169.993 102.939 168.16 104.557C164.924 107.145 163.199 104.234 163.415 100.998C163.415 100.243 162.336 99.7039 162.013 100.567C160.718 104.126 160.395 107.9 158.777 111.352C157.914 110.381 157.051 109.518 156.297 108.547C158.885 104.449 160.826 100.135 157.159 98.194C154.463 96.6841 153.385 100.351 153.061 102.4C152.738 104.665 153.277 106.714 154.355 108.44C152.953 110.381 151.443 112.322 150.581 114.587C146.051 105.528 145.619 95.4978 145.296 85.4678C151.767 84.0658 158.454 83.7422 165.464 84.3893C165.787 84.3893 165.895 83.8501 165.572 83.8501C158.561 82.6637 151.767 82.8794 145.296 84.2815C145.188 81.8009 145.08 79.2126 144.972 76.732H144.865C144.757 79.2126 144.541 81.8009 144.541 84.3893C142.06 84.9286 139.58 85.7914 137.207 86.6541C136.021 78.5655 135.158 70.4768 134.727 62.3881C149.394 59.2605 164.493 57.3192 179.376 58.5056C191.779 59.3684 212.162 63.4666 209.143 79.9675ZM154.571 102.616C154.679 101.429 155.757 97.0076 157.483 100.782C158.13 102.184 157.159 104.018 156.512 105.312C156.189 105.959 155.865 106.498 155.434 107.038C154.894 105.743 154.463 104.341 154.571 102.616Z" fill="#121212"/>
</svg>
